<svg xmlns:dc="http://purl.org/dc/elements/1.1/"
xmlns:cc="http://creativecommons.org/ns#" 
 xmlns:rdf="http://www.w3.org/1999/02/22-rdf-syntax-ns#" 
 xmlns:svg="http://www.w3.org/2000/svg" 
 xmlns="http://www.w3.org/2000/svg" 
 xmlns:sodipodi="http://sodipodi.sourceforge.net/DTD/sodipodi-0.dtd" 
 xmlns:inkscape="http://www.inkscape.org/namespaces/inkscape" 
 version="1.1" 
 x="0px" 
 y="0px" 
 viewBox="0 0 100 125">

<g transform="translate(0,-952.36218)">
<path 
style="color:#000000;enable-background:accumulate;" 
d="m 66.687502,960.36215 c -9.34765,3.15789 -16.632384,6.31579 -15.593754,20 9.347654,-2.10527 17.671014,-7.36843 15.593754,-20 z m -29.687504,19 c -9,0 -22,7.99996 -22,22.99995 0,21.0001 14,42.0001 22,42.0001 6,0 11,-4 15,-4 4,0 8.000004,4 14.000004,4 8,0 17,-12 19,-23 -7,-5 -12,-8 -12,-17.0001 0,-5.99999 5,-11.99999 11,-16.99999 -3,-3.99996 -9,-7.99996 -15,-7.99996 -6,0 -12.45208,4.74711 -17.000004,5 -4,0 -9,-5 -15,-5 z" 
fill="#000000" 
stroke="none" 
marker="none" 
visibility="visible" 
display="inline" 
overflow="visible"/>
</g>
</svg>