<svg xmlns="http://www.w3.org/2000/svg" xmlns:xlink="http://www.w3.org/1999/xlink" version="1.1" x="0px" y="0px" viewBox="0 0 100 125" style="enable-background:new 0 0 100 100;" xml:space="preserve"><style fill="#06c" type="text/css">
	.st0{fill:none;stroke:#000000;stroke-width:2;stroke-miterlimit:10;}
	.st1{fill:none;stroke:#000000;stroke-width:4;stroke-linejoin:round;stroke-miterlimit:10;}
	.st2{fill:none;stroke:#000000;stroke-width:5;stroke-linejoin:round;stroke-miterlimit:10;}
	.st3{stroke:#000000;stroke-width:4;stroke-linejoin:round;stroke-miterlimit:10;}
	.st4{fill:none;stroke:#000000;stroke-width:8;stroke-linejoin:round;stroke-miterlimit:10;}
	.st5{fill:none;stroke:#000000;stroke-miterlimit:10;}
	.st6{fill:none;stroke:#000000;stroke-linejoin:round;stroke-miterlimit:10;}
	.st7{fill:none;stroke:#000000;stroke-width:1.8333;stroke-miterlimit:10;}
	.st8{fill:none;stroke:#000000;stroke-width:1.6667;stroke-miterlimit:10;}
	.st9{fill:none;stroke:#000000;stroke-width:1.5;stroke-miterlimit:10;}
	.st10{fill:none;stroke:#000000;stroke-width:1.3333;stroke-miterlimit:10;}
	.st11{fill:none;stroke:#000000;stroke-width:1.1667;stroke-miterlimit:10;}
	.st12{fill:none;stroke:#000000;stroke-width:0.8333;stroke-miterlimit:10;}
	.st13{fill:none;stroke:#000000;stroke-width:0.6667;stroke-miterlimit:10;}
	.st14{fill:none;stroke:#000000;stroke-width:0.5;stroke-miterlimit:10;}
	.st15{fill:none;stroke:#000000;stroke-width:8;stroke-linecap:round;stroke-linejoin:round;stroke-miterlimit:10;}
	.st16{stroke:#000000;stroke-width:8;stroke-linejoin:round;stroke-miterlimit:10;}
	.st17{fill:#FFFFFF;}
</style><path d="M50,4.5C24.9,4.5,4.5,24.9,4.5,50S24.9,95.5,50,95.5S95.5,75.1,95.5,50S75.1,4.5,50,4.5z M50,90.5  C27.7,90.5,9.5,72.3,9.5,50S27.7,9.5,50,9.5S90.5,27.7,90.5,50S72.3,90.5,50,90.5z"/><path d="M67.8,48.3L41.6,33.2c-0.6-0.4-1.4-0.4-2,0c-0.6,0.4-1,1-1,1.7v30.2c0,0.7,0.4,1.4,1,1.7c0.3,0.2,0.7,0.3,1,0.3  s0.7-0.1,1-0.3l26.2-15.1c0.6-0.4,1-1,1-1.7S68.4,48.6,67.8,48.3z"/></svg>